<?xml version="1.0" encoding="UTF-8" standalone="no"?>
<!-- Created with Inkscape (http://www.inkscape.org/) -->

<svg
   width="210mm"
   height="297mm"
   viewBox="0 0 210 297"
   version="1.1"
   id="svg5"
   inkscape:version="1.1.2 (76b9e6a115, 2022-02-25)"
   sodipodi:docname="shock_scatch.svg"
   xmlns:inkscape="http://www.inkscape.org/namespaces/inkscape"
   xmlns:sodipodi="http://sodipodi.sourceforge.net/DTD/sodipodi-0.dtd"
   xmlns="http://www.w3.org/2000/svg"
   xmlns:svg="http://www.w3.org/2000/svg">
  <sodipodi:namedview
     id="namedview7"
     pagecolor="#ffffff"
     bordercolor="#111111"
     borderopacity="1"
     inkscape:pageshadow="0"
     inkscape:pageopacity="0"
     inkscape:pagecheckerboard="1"
     inkscape:document-units="mm"
     showgrid="false"
     inkscape:zoom="1.5554293"
     inkscape:cx="318.56157"
     inkscape:cy="54.325838"
     inkscape:window-width="1810"
     inkscape:window-height="1082"
     inkscape:window-x="72"
     inkscape:window-y="81"
     inkscape:window-maximized="0"
     inkscape:current-layer="layer1" />
  <defs
     id="defs2">
    <marker
       style="overflow:visible;"
       id="Arrow1Lend"
       refX="0.0"
       refY="0.0"
       orient="auto"
       inkscape:stockid="Arrow1Lend"
       inkscape:isstock="true">
      <path
         transform="scale(0.8) rotate(180) translate(12.5,0)"
         style="fill-rule:evenodd;fill:context-stroke;stroke:context-stroke;stroke-width:1.0pt;"
         d="M 0.0,0.0 L 5.0,-5.0 L -12.5,0.0 L 5.0,5.0 L 0.0,0.0 z "
         id="path70879" />
    </marker>
    <marker
       style="overflow:visible"
       id="Arrow1Lstart"
       refX="0.0"
       refY="0.0"
       orient="auto"
       inkscape:stockid="Arrow1Lstart"
       inkscape:isstock="true">
      <path
         transform="scale(0.8) translate(12.5,0)"
         style="fill-rule:evenodd;fill:context-stroke;stroke:context-stroke;stroke-width:1.0pt"
         d="M 0.0,0.0 L 5.0,-5.0 L -12.5,0.0 L 5.0,5.0 L 0.0,0.0 z "
         id="path70876" />
    </marker>
    <marker
       style="overflow:visible"
       id="Arrow1Lstart-9"
       refX="0"
       refY="0"
       orient="auto"
       inkscape:stockid="Arrow1Lstart"
       inkscape:isstock="true">
      <path
         transform="matrix(0.8,0,0,0.8,10,0)"
         style="fill:context-stroke;fill-rule:evenodd;stroke:context-stroke;stroke-width:1pt"
         d="M 0,0 5,-5 -12.5,0 5,5 Z"
         id="path70876-2" />
    </marker>
    <marker
       style="overflow:visible"
       id="Arrow1Lend-1"
       refX="0"
       refY="0"
       orient="auto"
       inkscape:stockid="Arrow1Lend"
       inkscape:isstock="true">
      <path
         transform="matrix(-0.8,0,0,-0.8,-10,0)"
         style="fill:context-stroke;fill-rule:evenodd;stroke:context-stroke;stroke-width:1pt"
         d="M 0,0 5,-5 -12.5,0 5,5 Z"
         id="path70879-2" />
    </marker>
    <marker
       style="overflow:visible"
       id="Arrow1Lend-19"
       refX="0"
       refY="0"
       orient="auto"
       inkscape:stockid="Arrow1Lend"
       inkscape:isstock="true">
      <path
         transform="matrix(-0.8,0,0,-0.8,-10,0)"
         style="fill:context-stroke;fill-rule:evenodd;stroke:context-stroke;stroke-width:1pt"
         d="M 0,0 5,-5 -12.5,0 5,5 Z"
         id="path70879-4" />
    </marker>
    <marker
       style="overflow:visible"
       id="Arrow1Lend-4"
       refX="0"
       refY="0"
       orient="auto"
       inkscape:stockid="Arrow1Lend"
       inkscape:isstock="true">
      <path
         transform="matrix(-0.8,0,0,-0.8,-10,0)"
         style="fill:context-stroke;fill-rule:evenodd;stroke:context-stroke;stroke-width:1pt"
         d="M 0,0 5,-5 -12.5,0 5,5 Z"
         id="path70879-5" />
    </marker>
    <marker
       style="overflow:visible"
       id="Arrow1Lend-10"
       refX="0"
       refY="0"
       orient="auto"
       inkscape:stockid="Arrow1Lend"
       inkscape:isstock="true">
      <path
         transform="matrix(-0.8,0,0,-0.8,-10,0)"
         style="fill:context-stroke;fill-rule:evenodd;stroke:context-stroke;stroke-width:1pt"
         d="M 0,0 5,-5 -12.5,0 5,5 Z"
         id="path70879-6" />
    </marker>
    <marker
       style="overflow:visible"
       id="Arrow1Lend-1-3"
       refX="0"
       refY="0"
       orient="auto"
       inkscape:stockid="Arrow1Lend"
       inkscape:isstock="true">
      <path
         transform="matrix(-0.8,0,0,-0.8,-10,0)"
         style="fill:context-stroke;fill-rule:evenodd;stroke:context-stroke;stroke-width:1pt"
         d="M 0,0 5,-5 -12.5,0 5,5 Z"
         id="path70879-2-2" />
    </marker>
    <marker
       style="overflow:visible"
       id="Arrow1Lend-19-0"
       refX="0"
       refY="0"
       orient="auto"
       inkscape:stockid="Arrow1Lend"
       inkscape:isstock="true">
      <path
         transform="matrix(-0.8,0,0,-0.8,-10,0)"
         style="fill:context-stroke;fill-rule:evenodd;stroke:context-stroke;stroke-width:1pt"
         d="M 0,0 5,-5 -12.5,0 5,5 Z"
         id="path70879-4-6" />
    </marker>
    <marker
       style="overflow:visible"
       id="Arrow1Lend-4-1"
       refX="0"
       refY="0"
       orient="auto"
       inkscape:stockid="Arrow1Lend"
       inkscape:isstock="true">
      <path
         transform="matrix(-0.8,0,0,-0.8,-10,0)"
         style="fill:context-stroke;fill-rule:evenodd;stroke:context-stroke;stroke-width:1pt"
         d="M 0,0 5,-5 -12.5,0 5,5 Z"
         id="path70879-5-5" />
    </marker>
    <marker
       style="overflow:visible"
       id="Arrow1Lend-4-1-7"
       refX="0"
       refY="0"
       orient="auto"
       inkscape:stockid="Arrow1Lend"
       inkscape:isstock="true">
      <path
         transform="matrix(-0.8,0,0,-0.8,-10,0)"
         style="fill:context-stroke;fill-rule:evenodd;stroke:context-stroke;stroke-width:1pt"
         d="M 0,0 5,-5 -12.5,0 5,5 Z"
         id="path70879-5-5-4" />
    </marker>
    <marker
       style="overflow:visible"
       id="Arrow1Lend-4-1-5"
       refX="0"
       refY="0"
       orient="auto"
       inkscape:stockid="Arrow1Lend"
       inkscape:isstock="true">
      <path
         transform="matrix(-0.8,0,0,-0.8,-10,0)"
         style="fill:context-stroke;fill-rule:evenodd;stroke:context-stroke;stroke-width:1pt"
         d="M 0,0 5,-5 -12.5,0 5,5 Z"
         id="path70879-5-5-47" />
    </marker>
    <marker
       style="overflow:visible"
       id="Arrow1Lend-4-1-3"
       refX="0"
       refY="0"
       orient="auto"
       inkscape:stockid="Arrow1Lend"
       inkscape:isstock="true">
      <path
         transform="matrix(-0.8,0,0,-0.8,-10,0)"
         style="fill:context-stroke;fill-rule:evenodd;stroke:context-stroke;stroke-width:1pt"
         d="M 0,0 5,-5 -12.5,0 5,5 Z"
         id="path70879-5-5-0" />
    </marker>
    <marker
       style="overflow:visible"
       id="Arrow1Lend-4-1-6"
       refX="0"
       refY="0"
       orient="auto"
       inkscape:stockid="Arrow1Lend"
       inkscape:isstock="true">
      <path
         transform="matrix(-0.8,0,0,-0.8,-10,0)"
         style="fill:context-stroke;fill-rule:evenodd;stroke:context-stroke;stroke-width:1pt"
         d="M 0,0 5,-5 -12.5,0 5,5 Z"
         id="path70879-5-5-8" />
    </marker>
    <marker
       style="overflow:visible"
       id="Arrow1Lend-4-1-7-8"
       refX="0"
       refY="0"
       orient="auto"
       inkscape:stockid="Arrow1Lend"
       inkscape:isstock="true">
      <path
         transform="matrix(-0.8,0,0,-0.8,-10,0)"
         style="fill:context-stroke;fill-rule:evenodd;stroke:context-stroke;stroke-width:1pt"
         d="M 0,0 5,-5 -12.5,0 5,5 Z"
         id="path70879-5-5-4-4" />
    </marker>
    <marker
       style="overflow:visible"
       id="Arrow1Lend-4-1-5-3"
       refX="0"
       refY="0"
       orient="auto"
       inkscape:stockid="Arrow1Lend"
       inkscape:isstock="true">
      <path
         transform="matrix(-0.8,0,0,-0.8,-10,0)"
         style="fill:context-stroke;fill-rule:evenodd;stroke:context-stroke;stroke-width:1pt"
         d="M 0,0 5,-5 -12.5,0 5,5 Z"
         id="path70879-5-5-47-1" />
    </marker>
    <marker
       style="overflow:visible"
       id="Arrow1Lend-4-1-3-4"
       refX="0"
       refY="0"
       orient="auto"
       inkscape:stockid="Arrow1Lend"
       inkscape:isstock="true">
      <path
         transform="matrix(-0.8,0,0,-0.8,-10,0)"
         style="fill:context-stroke;fill-rule:evenodd;stroke:context-stroke;stroke-width:1pt"
         d="M 0,0 5,-5 -12.5,0 5,5 Z"
         id="path70879-5-5-0-9" />
    </marker>
    <marker
       style="overflow:visible"
       id="Arrow1Lend-4-1-4"
       refX="0"
       refY="0"
       orient="auto"
       inkscape:stockid="Arrow1Lend"
       inkscape:isstock="true">
      <path
         transform="matrix(-0.8,0,0,-0.8,-10,0)"
         style="fill:context-stroke;fill-rule:evenodd;stroke:context-stroke;stroke-width:1pt"
         d="M 0,0 5,-5 -12.5,0 5,5 Z"
         id="path70879-5-5-9" />
    </marker>
    <marker
       style="overflow:visible"
       id="Arrow1Lend-4-1-7-5"
       refX="0"
       refY="0"
       orient="auto"
       inkscape:stockid="Arrow1Lend"
       inkscape:isstock="true">
      <path
         transform="matrix(-0.8,0,0,-0.8,-10,0)"
         style="fill:context-stroke;fill-rule:evenodd;stroke:context-stroke;stroke-width:1pt"
         d="M 0,0 5,-5 -12.5,0 5,5 Z"
         id="path70879-5-5-4-0" />
    </marker>
    <marker
       style="overflow:visible"
       id="Arrow1Lend-4-1-5-4"
       refX="0"
       refY="0"
       orient="auto"
       inkscape:stockid="Arrow1Lend"
       inkscape:isstock="true">
      <path
         transform="matrix(-0.8,0,0,-0.8,-10,0)"
         style="fill:context-stroke;fill-rule:evenodd;stroke:context-stroke;stroke-width:1pt"
         d="M 0,0 5,-5 -12.5,0 5,5 Z"
         id="path70879-5-5-47-8" />
    </marker>
    <marker
       style="overflow:visible"
       id="Arrow1Lend-4-1-3-7"
       refX="0"
       refY="0"
       orient="auto"
       inkscape:stockid="Arrow1Lend"
       inkscape:isstock="true">
      <path
         transform="matrix(-0.8,0,0,-0.8,-10,0)"
         style="fill:context-stroke;fill-rule:evenodd;stroke:context-stroke;stroke-width:1pt"
         d="M 0,0 5,-5 -12.5,0 5,5 Z"
         id="path70879-5-5-0-1" />
    </marker>
    <marker
       style="overflow:visible"
       id="Arrow1Lend-4-1-59"
       refX="0"
       refY="0"
       orient="auto"
       inkscape:stockid="Arrow1Lend"
       inkscape:isstock="true">
      <path
         transform="matrix(-0.8,0,0,-0.8,-10,0)"
         style="fill:context-stroke;fill-rule:evenodd;stroke:context-stroke;stroke-width:1pt"
         d="M 0,0 5,-5 -12.5,0 5,5 Z"
         id="path70879-5-5-49" />
    </marker>
    <marker
       style="overflow:visible"
       id="Arrow1Lend-4-1-7-0"
       refX="0"
       refY="0"
       orient="auto"
       inkscape:stockid="Arrow1Lend"
       inkscape:isstock="true">
      <path
         transform="matrix(-0.8,0,0,-0.8,-10,0)"
         style="fill:context-stroke;fill-rule:evenodd;stroke:context-stroke;stroke-width:1pt"
         d="M 0,0 5,-5 -12.5,0 5,5 Z"
         id="path70879-5-5-4-9" />
    </marker>
    <marker
       style="overflow:visible"
       id="Arrow1Lend-4-1-5-1"
       refX="0"
       refY="0"
       orient="auto"
       inkscape:stockid="Arrow1Lend"
       inkscape:isstock="true">
      <path
         transform="matrix(-0.8,0,0,-0.8,-10,0)"
         style="fill:context-stroke;fill-rule:evenodd;stroke:context-stroke;stroke-width:1pt"
         d="M 0,0 5,-5 -12.5,0 5,5 Z"
         id="path70879-5-5-47-7" />
    </marker>
    <marker
       style="overflow:visible"
       id="Arrow1Lend-4-1-3-71"
       refX="0"
       refY="0"
       orient="auto"
       inkscape:stockid="Arrow1Lend"
       inkscape:isstock="true">
      <path
         transform="matrix(-0.8,0,0,-0.8,-10,0)"
         style="fill:context-stroke;fill-rule:evenodd;stroke:context-stroke;stroke-width:1pt"
         d="M 0,0 5,-5 -12.5,0 5,5 Z"
         id="path70879-5-5-0-15" />
    </marker>
    <marker
       style="overflow:visible"
       id="Arrow1Lend-4-1-6-9"
       refX="0"
       refY="0"
       orient="auto"
       inkscape:stockid="Arrow1Lend"
       inkscape:isstock="true">
      <path
         transform="matrix(-0.8,0,0,-0.8,-10,0)"
         style="fill:context-stroke;fill-rule:evenodd;stroke:context-stroke;stroke-width:1pt"
         d="M 0,0 5,-5 -12.5,0 5,5 Z"
         id="path70879-5-5-8-7" />
    </marker>
    <marker
       style="overflow:visible"
       id="Arrow1Lend-4-1-7-8-7"
       refX="0"
       refY="0"
       orient="auto"
       inkscape:stockid="Arrow1Lend"
       inkscape:isstock="true">
      <path
         transform="matrix(-0.8,0,0,-0.8,-10,0)"
         style="fill:context-stroke;fill-rule:evenodd;stroke:context-stroke;stroke-width:1pt"
         d="M 0,0 5,-5 -12.5,0 5,5 Z"
         id="path70879-5-5-4-4-6" />
    </marker>
    <marker
       style="overflow:visible"
       id="Arrow1Lend-4-1-5-3-7"
       refX="0"
       refY="0"
       orient="auto"
       inkscape:stockid="Arrow1Lend"
       inkscape:isstock="true">
      <path
         transform="matrix(-0.8,0,0,-0.8,-10,0)"
         style="fill:context-stroke;fill-rule:evenodd;stroke:context-stroke;stroke-width:1pt"
         d="M 0,0 5,-5 -12.5,0 5,5 Z"
         id="path70879-5-5-47-1-3" />
    </marker>
    <marker
       style="overflow:visible"
       id="Arrow1Lend-4-1-3-4-6"
       refX="0"
       refY="0"
       orient="auto"
       inkscape:stockid="Arrow1Lend"
       inkscape:isstock="true">
      <path
         transform="matrix(-0.8,0,0,-0.8,-10,0)"
         style="fill:context-stroke;fill-rule:evenodd;stroke:context-stroke;stroke-width:1pt"
         d="M 0,0 5,-5 -12.5,0 5,5 Z"
         id="path70879-5-5-0-9-5" />
    </marker>
  </defs>
  <g
     inkscape:label="Layer 1"
     inkscape:groupmode="layer"
     id="layer1">
    <rect
       style="fill:#ffffff;stroke:#000000;stroke-width:0.275679;stroke-dasharray:0.827038, 0.275679"
       id="rect928"
       width="142.92467"
       height="96.302078"
       x="20.327843"
       y="-33.851486" />
    <path
       style="fill:none;stroke:#000000;stroke-width:0.264583px;stroke-linecap:butt;stroke-linejoin:miter;stroke-opacity:1"
       d="M 20.803628,-25.113371 H 163.70769"
       id="path982" />
    <path
       style="fill:none;stroke:#000000;stroke-width:0.264583px;stroke-linecap:butt;stroke-linejoin:miter;stroke-opacity:1"
       d="m 68.265439,-23.120615 -0.09703,74.951633"
       id="path1097"
       sodipodi:nodetypes="cc" />
    <text
       xml:space="preserve"
       style="font-style:normal;font-weight:normal;font-size:7.05556px;line-height:1.25;font-family:sans-serif;fill:#000000;fill-opacity:1;stroke:none;stroke-width:0.264583"
       x="43.55238"
       y="58.705269"
       id="text10553"><tspan
         sodipodi:role="line"
         id="tspan10551"
         style="font-style:normal;font-variant:normal;font-weight:normal;font-stretch:normal;font-size:7.05556px;font-family:'Times New Roman';-inkscape-font-specification:'Times New Roman, ';stroke-width:0.264583"
         x="43.55238"
         y="58.705269">Contact discontinuity</tspan></text>
    <path
       style="fill:none;stroke:#000000;stroke-width:0.265;stroke-linecap:butt;stroke-linejoin:miter;stroke-miterlimit:4;stroke-dasharray:0.265, 0.53;stroke-dashoffset:0;stroke-opacity:1"
       d="M 105.58792,-22.429928 105.4205,60.447095"
       id="path1097-3"
       sodipodi:nodetypes="cc" />
    <text
       xml:space="preserve"
       style="font-style:normal;font-weight:normal;font-size:7.05556px;line-height:1.25;font-family:sans-serif;fill:#000000;fill-opacity:1;stroke:none;stroke-width:0.264583"
       x="107.9403"
       y="59.378849"
       id="text57414"><tspan
         sodipodi:role="line"
         id="tspan57412"
         style="font-style:normal;font-variant:normal;font-weight:normal;font-stretch:normal;font-size:7.05556px;font-family:'Times New Roman';-inkscape-font-specification:'Times New Roman, ';stroke-width:0.264583"
         x="107.9403"
         y="59.378849">Forward shock</tspan></text>
    <path
       style="fill:none;stroke:#000000;stroke-width:0.264583px;stroke-linecap:butt;stroke-linejoin:miter;stroke-opacity:1;marker-start:url(#Arrow1Lstart)"
       d="m 85.30433,51.806418 -17.135923,0.0246"
       id="path70855"
       sodipodi:nodetypes="cc" />
    <text
       xml:space="preserve"
       style="font-style:normal;font-weight:normal;font-size:7.05556px;line-height:1.25;font-family:sans-serif;fill:#000000;fill-opacity:1;stroke:none;stroke-width:0.264583"
       x="79.738411"
       y="48.812222"
       id="text77108"><tspan
         sodipodi:role="line"
         id="tspan77106"
         style="font-style:normal;font-variant:normal;font-weight:normal;font-stretch:normal;font-size:7.05556px;font-family:'Times New Roman';-inkscape-font-specification:'Times New Roman, ';stroke-width:0.264583"
         x="79.738411"
         y="48.812222">Γ</tspan></text>
    <path
       style="fill:none;stroke:#000000;stroke-width:0.264583px;stroke-linecap:butt;stroke-linejoin:miter;stroke-opacity:1;marker-start:url(#Arrow1Lstart-9)"
       d="m 127.49994,52.042763 -22.00481,0.109304"
       id="path70855-2"
       sodipodi:nodetypes="cc" />
    <text
       xml:space="preserve"
       style="font-style:normal;font-weight:normal;font-size:7.05556px;line-height:1.25;font-family:sans-serif;fill:#000000;fill-opacity:1;stroke:none;stroke-width:0.264583"
       x="119.03885"
       y="48.84874"
       id="text77108-8"><tspan
         sodipodi:role="line"
         id="tspan77106-9"
         style="font-style:normal;font-variant:normal;font-weight:normal;font-stretch:normal;font-size:7.05556px;font-family:'Times New Roman';-inkscape-font-specification:'Times New Roman, ';stroke-width:0.264583"
         x="119.03885"
         y="48.84874">Γ<tspan
   style="font-size:65%;baseline-shift:sub"
   id="tspan101113">sh</tspan></tspan></text>
    <text
       xml:space="preserve"
       style="font-style:normal;font-weight:normal;font-size:7.05556px;line-height:1.25;font-family:sans-serif;fill:#000000;fill-opacity:1;stroke:none;stroke-width:0.264583"
       x="116.63773"
       y="-26.888073"
       id="text105035"><tspan
         sodipodi:role="line"
         id="tspan105033"
         style="font-style:normal;font-variant:normal;font-weight:normal;font-stretch:normal;font-size:7.05556px;font-family:'Times New Roman';-inkscape-font-specification:'Times New Roman, ';stroke-width:0.264583"
         x="116.63773"
         y="-26.888073">Cold ISM</tspan></text>
    <text
       xml:space="preserve"
       style="font-style:normal;font-weight:normal;font-size:7.05556px;line-height:1.25;font-family:sans-serif;fill:#000000;fill-opacity:1;stroke:none;stroke-width:0.264583"
       x="68.37281"
       y="-27.130287"
       id="text119801"><tspan
         sodipodi:role="line"
         id="tspan119799"
         style="font-style:normal;font-variant:normal;font-weight:normal;font-stretch:normal;font-size:7.05556px;font-family:'Times New Roman';-inkscape-font-specification:'Times New Roman, ';stroke-width:0.264583"
         x="68.37281"
         y="-27.130287">Shocked ISM</tspan></text>
    <ellipse
       style="fill:#1a1a1a;stroke:#000000;stroke-width:0.172411;stroke-miterlimit:4;stroke-dasharray:0.172411, 0.344822;stroke-dashoffset:0"
       id="path129339-0-9"
       cx="119.49831"
       cy="19.98699"
       rx="0.95952123"
       ry="1.0097855" />
    <path
       style="fill:none;stroke:#000000;stroke-width:0.165;stroke-linecap:butt;stroke-linejoin:miter;stroke-miterlimit:4;stroke-dasharray:none;stroke-opacity:1;marker-end:url(#Arrow1Lend-4-1)"
       d="m 118.19414,19.903275 -8.70446,-0.08679"
       id="path129472-36-3" />
    <ellipse
       style="fill:#1a1a1a;stroke:#000000;stroke-width:0.172411;stroke-miterlimit:4;stroke-dasharray:0.172411, 0.344822;stroke-dashoffset:0"
       id="path129339-0-9-5"
       cx="119.553"
       cy="14.813579"
       rx="0.95952123"
       ry="1.0097855" />
    <path
       style="fill:none;stroke:#000000;stroke-width:0.165;stroke-linecap:butt;stroke-linejoin:miter;stroke-miterlimit:4;stroke-dasharray:none;stroke-opacity:1;marker-end:url(#Arrow1Lend-4-1-7)"
       d="m 118.24882,14.729867 -8.70446,-0.08679"
       id="path129472-36-3-2" />
    <ellipse
       style="fill:#1a1a1a;stroke:#000000;stroke-width:0.172411;stroke-miterlimit:4;stroke-dasharray:0.172411, 0.344822;stroke-dashoffset:0"
       id="path129339-0-9-4"
       cx="119.54679"
       cy="9.5866995"
       rx="0.95952123"
       ry="1.0097855" />
    <path
       style="fill:none;stroke:#000000;stroke-width:0.165;stroke-linecap:butt;stroke-linejoin:miter;stroke-miterlimit:4;stroke-dasharray:none;stroke-opacity:1;marker-end:url(#Arrow1Lend-4-1-5)"
       d="m 118.34907,9.5312114 -8.70446,-0.08679"
       id="path129472-36-3-4" />
    <ellipse
       style="fill:#1a1a1a;stroke:#000000;stroke-width:0.172411;stroke-miterlimit:4;stroke-dasharray:0.172411, 0.344822;stroke-dashoffset:0"
       id="path129339-0-9-7"
       cx="119.67847"
       cy="4.2641678"
       rx="0.95952123"
       ry="1.0097855" />
    <path
       style="fill:none;stroke:#000000;stroke-width:0.165;stroke-linecap:butt;stroke-linejoin:miter;stroke-miterlimit:4;stroke-dasharray:none;stroke-opacity:1;marker-end:url(#Arrow1Lend-4-1-3)"
       d="m 118.3743,4.1804544 -8.70446,-0.08679"
       id="path129472-36-3-8" />
    <ellipse
       style="fill:#1a1a1a;stroke:#000000;stroke-width:0.172411;stroke-miterlimit:4;stroke-dasharray:0.172411, 0.344822;stroke-dashoffset:0"
       id="path129339-0-9-2"
       cx="132.91089"
       cy="20.148108"
       rx="0.95952123"
       ry="1.0097855" />
    <path
       style="fill:none;stroke:#000000;stroke-width:0.165;stroke-linecap:butt;stroke-linejoin:miter;stroke-miterlimit:4;stroke-dasharray:none;stroke-opacity:1;marker-end:url(#Arrow1Lend-4-1-6)"
       d="m 131.60672,20.064391 -8.70446,-0.0868"
       id="path129472-36-3-0" />
    <ellipse
       style="fill:#1a1a1a;stroke:#000000;stroke-width:0.172411;stroke-miterlimit:4;stroke-dasharray:0.172411, 0.344822;stroke-dashoffset:0"
       id="path129339-0-9-5-6"
       cx="132.96558"
       cy="14.97469"
       rx="0.95952123"
       ry="1.0097855" />
    <path
       style="fill:none;stroke:#000000;stroke-width:0.165;stroke-linecap:butt;stroke-linejoin:miter;stroke-miterlimit:4;stroke-dasharray:none;stroke-opacity:1;marker-end:url(#Arrow1Lend-4-1-7-8)"
       d="m 131.6614,14.890981 -8.70446,-0.0868"
       id="path129472-36-3-2-8" />
    <ellipse
       style="fill:#1a1a1a;stroke:#000000;stroke-width:0.172411;stroke-miterlimit:4;stroke-dasharray:0.172411, 0.344822;stroke-dashoffset:0"
       id="path129339-0-9-4-9"
       cx="132.95937"
       cy="9.7478228"
       rx="0.95952123"
       ry="1.0097855" />
    <path
       style="fill:none;stroke:#000000;stroke-width:0.165;stroke-linecap:butt;stroke-linejoin:miter;stroke-miterlimit:4;stroke-dasharray:none;stroke-opacity:1;marker-end:url(#Arrow1Lend-4-1-5-3)"
       d="m 131.76165,9.6923314 -8.70446,-0.0868"
       id="path129472-36-3-4-2" />
    <ellipse
       style="fill:#1a1a1a;stroke:#000000;stroke-width:0.172411;stroke-miterlimit:4;stroke-dasharray:0.172411, 0.344822;stroke-dashoffset:0"
       id="path129339-0-9-7-6"
       cx="133.09105"
       cy="4.4252815"
       rx="0.95952123"
       ry="1.0097855" />
    <path
       style="fill:none;stroke:#000000;stroke-width:0.165;stroke-linecap:butt;stroke-linejoin:miter;stroke-miterlimit:4;stroke-dasharray:none;stroke-opacity:1;marker-end:url(#Arrow1Lend-4-1-3-4)"
       d="m 131.78688,4.3415714 -8.70446,-0.0868"
       id="path129472-36-3-8-6" />
    <ellipse
       style="fill:#1a1a1a;stroke:#000000;stroke-width:0.172411;stroke-miterlimit:4;stroke-dasharray:0.172411, 0.344822;stroke-dashoffset:0"
       id="path129339-0-9-6"
       cx="63.84927"
       cy="-49.089863"
       rx="0.95952123"
       ry="1.0097855"
       transform="rotate(52.836414)" />
    <path
       style="fill:none;stroke:#000000;stroke-width:0.165;stroke-linecap:butt;stroke-linejoin:miter;stroke-miterlimit:4;stroke-dasharray:none;stroke-opacity:1;marker-end:url(#Arrow1Lend-4-1-59)"
       d="M 76.970148,20.137659 71.781011,13.148524"
       id="path129472-36-3-3" />
    <ellipse
       style="fill:#1a1a1a;stroke:#000000;stroke-width:0.172411;stroke-miterlimit:4;stroke-dasharray:0.172411, 0.344822;stroke-dashoffset:0"
       id="path129339-0-9-5-9"
       cx="45.53064"
       cy="65.088348"
       rx="0.95952123"
       ry="1.0097855"
       transform="rotate(-44.232162)" />
    <path
       style="fill:none;stroke:#000000;stroke-width:0.165;stroke-linecap:butt;stroke-linejoin:miter;stroke-miterlimit:4;stroke-dasharray:none;stroke-opacity:1;marker-end:url(#Arrow1Lend-4-1-7-0)"
       d="m 77.034212,15.726128 -6.297455,6.009761"
       id="path129472-36-3-2-4" />
    <ellipse
       style="fill:#1a1a1a;stroke:#000000;stroke-width:0.172411;stroke-miterlimit:4;stroke-dasharray:0.172411, 0.344822;stroke-dashoffset:0"
       id="path129339-0-9-4-8"
       cx="55.147171"
       cy="-56.069702"
       rx="0.95952123"
       ry="1.0097855"
       transform="rotate(52.606226)" />
    <path
       style="fill:none;stroke:#000000;stroke-width:0.165;stroke-linecap:butt;stroke-linejoin:miter;stroke-miterlimit:4;stroke-dasharray:none;stroke-opacity:1;marker-end:url(#Arrow1Lend-4-1-5-1)"
       d="M 77.353302,8.7775489 72.136128,1.8093183"
       id="path129472-36-3-4-1" />
    <ellipse
       style="fill:#1a1a1a;stroke:#000000;stroke-width:0.172411;stroke-miterlimit:4;stroke-dasharray:0.172411, 0.344822;stroke-dashoffset:0"
       id="path129339-0-9-7-2"
       cx="51.872543"
       cy="58.782188"
       rx="0.95952123"
       ry="1.0097855"
       transform="rotate(-46.038682)" />
    <path
       style="fill:none;stroke:#000000;stroke-width:0.165;stroke-linecap:butt;stroke-linejoin:miter;stroke-miterlimit:4;stroke-dasharray:none;stroke-opacity:1;marker-end:url(#Arrow1Lend-4-1-3-71)"
       d="M 77.354837,4.3473229 71.249968,10.552621"
       id="path129472-36-3-8-9" />
    <ellipse
       style="fill:#1a1a1a;stroke:#000000;stroke-width:0.172411;stroke-miterlimit:4;stroke-dasharray:0.172411, 0.344822;stroke-dashoffset:0"
       id="path129339-0-9-2-3"
       cx="-74.92215"
       cy="41.335732"
       rx="0.95952123"
       ry="1.0097855"
       transform="rotate(-140.97199)" />
    <path
       style="fill:none;stroke:#000000;stroke-width:0.165;stroke-linecap:butt;stroke-linejoin:miter;stroke-miterlimit:4;stroke-dasharray:none;stroke-opacity:1;marker-end:url(#Arrow1Lend-4-1-6-9)"
       d="m 85.191929,15.953597 6.70729,5.54863"
       id="path129472-36-3-0-9" />
    <ellipse
       style="fill:#1a1a1a;stroke:#000000;stroke-width:0.172411;stroke-miterlimit:4;stroke-dasharray:0.172411, 0.344822;stroke-dashoffset:0"
       id="path129339-0-9-5-6-0"
       cx="-57.269424"
       cy="-64.902359"
       rx="0.95952123"
       ry="1.0097855"
       transform="rotate(145.50908)" />
    <path
       style="fill:none;stroke:#000000;stroke-width:0.165;stroke-linecap:butt;stroke-linejoin:miter;stroke-miterlimit:4;stroke-dasharray:none;stroke-opacity:1;marker-end:url(#Arrow1Lend-4-1-7-8-7)"
       d="m 85.160079,20.229541 7.22351,-4.857582"
       id="path129472-36-3-2-8-8" />
    <ellipse
       style="fill:#1a1a1a;stroke:#000000;stroke-width:0.172411;stroke-miterlimit:4;stroke-dasharray:0.172411, 0.344822;stroke-dashoffset:0"
       id="path129339-0-9-4-9-8"
       cx="-56.511189"
       cy="62.52129"
       rx="0.95952123"
       ry="1.0097855"
       transform="rotate(-129.64957)" />
    <path
       style="fill:none;stroke:#000000;stroke-width:0.165;stroke-linecap:butt;stroke-linejoin:miter;stroke-miterlimit:4;stroke-dasharray:none;stroke-opacity:1;marker-end:url(#Arrow1Lend-4-1-5-3-7)"
       d="m 85.034375,4.3304739 5.94814,6.3556911"
       id="path129472-36-3-4-2-5" />
    <ellipse
       style="fill:#1a1a1a;stroke:#000000;stroke-width:0.172411;stroke-miterlimit:4;stroke-dasharray:0.172411, 0.344822;stroke-dashoffset:0"
       id="path129339-0-9-7-6-0"
       cx="-59.733498"
       cy="-60.022797"
       rx="0.95952123"
       ry="1.0097855"
       transform="rotate(141.64484)" />
    <path
       style="fill:none;stroke:#000000;stroke-width:0.165;stroke-linecap:butt;stroke-linejoin:miter;stroke-miterlimit:4;stroke-dasharray:none;stroke-opacity:1;marker-end:url(#Arrow1Lend-4-1-3-4-6)"
       d="m 85.029344,9.2754289 6.87972,-5.333349"
       id="path129472-36-3-8-6-9" />
    <path
       style="fill:none;stroke:#000000;stroke-width:0.264583px;stroke-linecap:butt;stroke-linejoin:miter;stroke-opacity:1"
       d="m 136.96665,-18.361035 c -2.67005,1.820205 -4.25185,4.554043 -5.46712,7.501601 -1.27495,3.0922733 -2.53704,6.7789022 -1.62086,10.16945372 0.44683,1.65363452 2.53105,1.46434076 2.88918,-0.13157018 0.22676,-1.01046634 -0.048,-3.86387464 -0.13649,-4.67793114 -0.43339,-3.9916844 -1.99836,-9.0005164 -1.01675,-12.9991494 0.63087,-2.569886 3.1257,-3.960611 5.53632,-4.390814 1.23612,-0.220593 1.99175,-0.19096 1.88681,0.137084 -0.6065,1.895716 -4.14248,3.157462 -5.65093,3.882523 -3.71818,1.787199 -8.36553,3.289579 -11.47304,5.911114"
       id="path132560" />
    <path
       style="fill:none;stroke:#000000;stroke-width:0.264583px;stroke-linecap:butt;stroke-linejoin:miter;stroke-opacity:1"
       d="m 127.87282,-16.440218 c -4.2474,1.820464 -8.22416,4.174741 -9.14908,9.0993867 -0.26538,1.4130267 -0.31307,3.5288852 -0.007,5.0033363 0.12783,0.6148463 0.57891,2.0273639 1.34422,2.3068962 0.29965,0.1094408 0.0111,-0.6424517 -0.0487,-0.9558036 -0.12937,-0.6774027 -0.27536,-1.3516666 -0.42945,-2.0238747 -0.94642,-4.1289886 -2.21438,-7.2374439 -4.13487,-10.9510479 -0.10884,-0.210529 -1.61916,-2.361471 -0.92288,-2.776275 1.45339,-0.865836 5.07468,-1.360184 6.80978,-1.48725 0.14683,-0.01075 0.74041,-0.08358 0.88514,0.203208 0.17848,0.353654 -0.85561,0.882499 -2.31227,1.351938 -2.98209,0.96104 -6.36521,0.973655 -9.2158,2.312173 -0.3967,0.186276 -1.0461,0.539181 -0.95785,1.107051 0.45799,2.94715 4.02481,4.0040994 6.49185,3.3168016 0.39211,-0.1092396 1.72545,-0.5590756 1.81172,-1.2241686 0.16576,-1.277664 -1.24926,-2.701582 -1.96888,-3.435954 -2.10556,-2.148734 -4.128,-3.554516 -7.08349,-4.132278 -0.31166,-0.06092 -2.83327,-0.212438 -1.28961,-0.407873"
       id="path132699" />
    <path
       style="fill:none;stroke:#000000;stroke-width:0.264583px;stroke-linecap:butt;stroke-linejoin:miter;stroke-opacity:1"
       d="m 74.700527,-9.9875968 c 4.896062,-1.0595222 10.326559,-5.1773172 10.705789,-10.5135372 0.0693,-0.974867 0.0132,-1.695989 -0.71358,-2.342374 -2.13101,-1.895211 -2.73843,4.145933 -2.8585,4.67919 -0.28434,1.262753 -1.309931,5.904664 -1.569913,7.310927 -0.174688,0.9449012 -0.328755,1.8943272 -0.445058,2.8481742 -0.127826,1.048374 -0.0701,4.165277 -1.094642,5.00635 -0.221557,0.181883 -0.520256,0.24102 -0.78354,0.354378 -0.68874,0.296542 -0.951616,0.484986 -1.78277,0.218829 -2.404486,-0.769983 -1.240267,-3.926089 -0.256048,-5.302449 1.96537,-2.7484302 5.0224,-4.4648542 7.908841,-6.0422262 2.3889,-1.30548 6.93144,-2.666378 5.9859,-6.348327 -0.42938,-1.672024 -1.79272,-2.805113 -3.5016,-2.741748 -0.28728,0.01066 -0.60242,-0.0031 -0.85069,0.141841 -1.51834,0.886356 -2.28386,3.57347 -2.70458,5.011631 -0.86451,2.955198 -1.11711,5.840312 -1.18315,8.8990942 -0.0511,2.364951 -0.004,1.048901 0.0709,2.918357 0.0215,0.540427 -0.1037,1.337876 -0.20299,1.2301 -1.55072,-1.683154 -3.579548,-5.9059202 -3.127753,-8.2497902 0.167534,-0.869153 1.258221,-1.687602 1.955263,-2.02529 2.78702,-1.3502 6.06333,-0.725524 8.97449,-1.587222 2.49224,-0.737693 2.83719,-5.426684 0.26885,-6.320816 -0.33544,-0.116782 -0.70818,-0.08156 -1.0632,-0.07088 -3.608,0.108545 -4.41095,4.684768 -5.1427,7.448349 -0.27688,1.045654 -0.6441,2.069266 -0.85783,3.129632 -0.0915,0.453755 -0.30961,3.2147612 -0.38661,3.9275222 -0.0204,0.188854 -0.30998,3.675531 -1.380263,2.864356 -0.749851,-0.568315 -0.847588,-1.057765 -1.152859,-2.043179 -1.654156,-5.3396282 0.936586,-6.2790652 5.627512,-7.1754102 1.29993,-0.248391 3.52239,-0.266377 4.65957,-1.118841 0.97791,-0.733062 1.08262,-4.838983 -0.13886,-5.361646 -0.15524,-0.06643 -1.10327,-0.0952 -1.26571,-0.06944 -3.04998,0.48364 -4.80562,9.647793 -5.08905,12.2460892 -0.12192,1.11769 -0.0808,2.264079 -0.14187,3.385799 -0.0192,0.351599 -0.27844,1.694746 -0.81023,0.690202 -1.902223,-3.593256 3.00765,-5.9256932 5.31428,-7.3098892 1.0519,-0.631241 2.10606,-1.259293 3.17555,-1.860243 0.17453,-0.09807 3.03344,-1.536483 3.68502,-2.066566 1.69505,-1.379 -0.34388,-3.955007 -1.85465,-4.409323 -0.70545,-0.212143 -1.84814,0.280268 -2.40791,0.63867 -3.60801,2.310108 -3.77512,8.056673 -3.83943,11.8165532 -0.001,0.07155 -0.33537,4.347787 0.24437,3.610248"
       id="path132982" />
    <text
       xml:space="preserve"
       style="font-style:normal;font-weight:normal;font-size:7.05556px;line-height:1.25;font-family:sans-serif;fill:#000000;fill-opacity:1;stroke:none;stroke-width:0.264583"
       x="136.90967"
       y="13.331516"
       id="text136990"><tspan
         sodipodi:role="line"
         id="tspan136988"
         style="font-size:7.05556px;stroke-width:0.264583"
         x="136.90967"
         y="13.331516">v<tspan
   style="font-size:65%;baseline-shift:sub"
   id="tspan165806">e</tspan></tspan></text>
    <text
       xml:space="preserve"
       style="font-style:normal;font-weight:normal;font-size:7.05556px;line-height:1.25;font-family:sans-serif;fill:#000000;fill-opacity:1;stroke:none;stroke-width:0.264583"
       x="136.28471"
       y="-8.1723013"
       id="text169440"><tspan
         sodipodi:role="line"
         id="tspan169438"
         style="font-size:7.05556px;stroke-width:0.264583"
         x="136.28471"
         y="-8.1723013">B</tspan></text>
    <path
       style="fill:none;stroke:#000000;stroke-width:0.264583px;stroke-linecap:butt;stroke-linejoin:miter;stroke-opacity:1"
       d="m 109.09622,28.0143 35.06322,0.0089"
       id="path176053"
       sodipodi:nodetypes="cc" />
    <path
       style="fill:none;stroke:#000000;stroke-width:0.264583px;stroke-linecap:butt;stroke-linejoin:miter;stroke-opacity:1"
       d="m 113.05752,26.525934 c -0.0941,1.711015 -0.58038,3.865313 0.6513,0.993099 0.0963,-0.224602 0.32601,1.201714 0.4888,1.233808 0.007,0.0014 0.30866,-1.139476 0.35123,-1.206267 0.12789,-0.200628 -0.0938,0.822088 0.21618,0.9514 0.0992,0.04139 0.10177,-1.818378 0.36308,-1.065831 0.0761,0.219246 0.1682,0.436322 0.20448,0.665562 0.0735,0.464179 0.0846,0.936114 0.1232,1.40448 0.11821,1.433039 0.27371,2.871752 0.25496,4.310598 -0.002,0.119815 0.0423,-0.237109 0.0427,-0.35693 0.002,-0.565326 -0.0445,-1.130513 -0.0315,-1.695688 0.049,-2.118565 -0.0202,-4.709568 0.62499,-6.765118 0.0972,-0.309738 0.3106,0.586298 0.35113,0.908391 0.21776,1.730576 0.20209,3.531939 0.29055,5.274266 0.0294,0.578334 0.0678,1.156287 0.0875,1.735027 0.008,0.235495 -0.0413,0.940736 -0.0133,0.706777 0.20447,-1.707502 0.113,-3.457328 0.31931,-5.18028 0.0575,-0.480179 0.0826,-0.965354 0.1725,-1.440539 0.0482,-0.25473 0.10771,-0.881829 0.30611,-0.714966 0.46939,0.394757 0.54298,2.353652 0.75898,3.018941 0.0948,0.292034 -0.024,-0.613625 -0.0326,-0.920538 -0.007,-0.239229 -0.0516,-1.744145 6e-4,-1.79335 0.12766,-0.120366 0.19635,0.298392 0.24055,0.468191 0.31908,1.225782 0.25141,2.531679 0.34878,3.7855 0.006,0.0734 -0.025,-0.145162 -0.0379,-0.217665 -0.0518,-0.290401 -0.15398,-0.692419 -0.14718,-1.001795 0.0445,-2.02471 0.23368,0.561334 0.6639,-0.176337"
       id="path176156" />
    <path
       style="fill:none;stroke:#000000;stroke-width:0.264583px;stroke-linecap:butt;stroke-linejoin:miter;stroke-opacity:1"
       d="m 68.19943,28.016162 35.06322,0.0089"
       id="path176053-8"
       sodipodi:nodetypes="cc" />
    <path
       style="fill:none;stroke:#000000;stroke-width:0.264583px;stroke-linecap:butt;stroke-linejoin:miter;stroke-opacity:1"
       d="m 77.94329,27.961267 c 1.68684,0.592678 0.31643,0.137222 1.10219,-0.754856 0.11459,-0.130093 0.13927,0.325045 0.14961,0.498091 0.0372,0.623562 -0.0374,1.243319 -0.0556,1.852703 -0.009,0.308698 0.095,-0.610949 0.1185,-0.918891 0.0236,-0.310241 -0.0698,-1.45561 0.0214,-1.524947 0.0441,-0.03362 -0.0541,0.100809 -0.0579,0.156209 -0.0127,0.187077 0.0239,0.374383 0.0275,0.56186 0.0141,0.73428 -0.0735,1.735566 0.21902,2.437914 0.0484,0.116284 0.29765,-0.21564 0.31569,-1.270208 0.01,-0.586276 -0.0166,-2.91178 -0.29581,-3.349419 -0.29234,-0.458271 0.0847,1.083961 0.11383,1.626754 0.0898,1.673395 0.0485,3.293347 0.26064,4.953523 0.009,0.06661 0.003,-0.13439 0.008,-0.201382 0.0205,-0.291788 0.0218,-0.58463 0.0371,-0.876736 0.024,-0.457707 0.0762,-0.914316 0.0806,-1.37263 0.009,-0.983185 -0.002,-1.967061 -0.0447,-2.949366 -0.0197,-0.452539 -0.23669,-1.233961 -0.17444,-1.716842 0.0176,-0.136903 0.0837,0.263644 0.11108,0.398951 0.0757,0.374507 0.15498,0.748641 0.21312,1.126275 0.19187,1.246453 0.28847,2.513603 0.33768,3.77355 0.007,0.187116 -0.13537,0.467768 0.027,0.561059 0.0648,0.03726 0.0765,-0.559409 0.12232,-1.743012 0.0278,-0.717827 0.50843,-3.458112 0.0788,-4.131666 -0.16439,-0.257684 0.252,0.54714 0.43222,1.468385 0.17972,0.918752 0.26374,2.040373 0.21124,2.979713 -0.0138,0.246687 0.0909,-0.488389 0.0923,-0.735458 0.006,-1.028784 -0.13843,-1.986505 0.0298,-3.006471 0.0496,-0.300411 0.0895,0.602505 0.12134,0.905312 0.0826,0.785971 0.31878,3.001583 0.21373,3.0686 -0.20687,0.131969 -0.005,-0.490827 -0.0148,-0.736019 -0.0249,-0.623609 -0.0646,-1.275346 -0.0429,-1.900183 0.004,-0.115805 0.0645,0.222769 0.0886,0.336097 0.0951,0.449148 0.19431,0.85093 0.17282,1.303096 -9.6e-4,0.01709 0.0355,-0.795958 0.19744,-0.953257 0.0294,-0.02862 0.14128,0.950361 0.14202,0.954882 0.16472,1.004955 0.064,-0.274135 0.15005,-0.532904 0.031,-0.0931 0.10924,0.863018 0.14396,0.417252"
       id="path176285-1" />
    <path
       style="fill:none;stroke:#000000;stroke-width:0.264583px;stroke-linecap:butt;stroke-linejoin:miter;stroke-opacity:1"
       d="m 91.26101,27.766039 c 1.68684,0.592678 0.31643,0.137222 1.10219,-0.754856 0.11459,-0.130093 0.13927,0.325045 0.14961,0.498091 0.0372,0.623562 -0.0374,1.243319 -0.0556,1.852703 -0.009,0.308698 0.095,-0.610949 0.1185,-0.918891 0.0236,-0.310241 -0.0698,-1.45561 0.0214,-1.524947 0.0441,-0.03362 -0.0541,0.100809 -0.0579,0.156209 -0.0127,0.187077 0.0239,0.374383 0.0275,0.56186 0.0141,0.73428 -0.0735,1.735566 0.21902,2.437914 0.0484,0.116284 0.29765,-0.21564 0.31569,-1.270208 0.01,-0.586276 -0.0166,-2.91178 -0.29581,-3.349419 -0.29234,-0.458271 0.0847,1.083961 0.11383,1.626754 0.0898,1.673395 0.0485,3.293347 0.26064,4.953523 0.009,0.06661 0.003,-0.13439 0.008,-0.201382 0.0205,-0.291788 0.0218,-0.58463 0.0371,-0.876736 0.024,-0.457707 0.0762,-0.914316 0.0806,-1.37263 0.009,-0.983185 -0.002,-1.967061 -0.0447,-2.949366 -0.0197,-0.452539 -0.23669,-1.233961 -0.17444,-1.716842 0.0176,-0.136903 0.0837,0.263644 0.11108,0.398951 0.0757,0.374507 0.15498,0.748641 0.21312,1.126275 0.19187,1.246453 0.28847,2.513603 0.33768,3.77355 0.007,0.187116 -0.13537,0.467768 0.027,0.561059 0.0648,0.03726 0.0765,-0.559409 0.12232,-1.743012 0.0278,-0.717827 0.50843,-3.458112 0.0788,-4.131666 -0.16439,-0.257684 0.252,0.54714 0.43222,1.468385 0.17972,0.918752 0.26374,2.040373 0.21124,2.979713 -0.0138,0.246687 0.0909,-0.488389 0.0923,-0.735458 0.006,-1.028784 -0.13843,-1.986505 0.0298,-3.006471 0.0496,-0.300411 0.0895,0.602505 0.12134,0.905312 0.0826,0.785971 0.31878,3.001583 0.21373,3.0686 -0.20687,0.131969 -0.005,-0.490827 -0.0148,-0.736019 -0.0249,-0.623609 -0.0646,-1.275346 -0.0429,-1.900183 0.004,-0.115805 0.0645,0.222769 0.0886,0.336097 0.0951,0.449148 0.19431,0.85093 0.17282,1.303096 -9.6e-4,0.01709 0.0355,-0.795958 0.19744,-0.953257 0.0294,-0.02862 0.14128,0.950361 0.14202,0.954882 0.16472,1.004955 0.064,-0.274135 0.15005,-0.532904 0.031,-0.0931 0.10924,0.863018 0.14396,0.417252"
       id="path176285-0" />
    <path
       style="fill:none;stroke:#000000;stroke-width:0.264583px;stroke-linecap:butt;stroke-linejoin:miter;stroke-opacity:1"
       d="m 68.300719,39.041052 35.063221,0.0089"
       id="path176053-3"
       sodipodi:nodetypes="cc" />
    <path
       style="fill:none;stroke:#000000;stroke-width:0.264583px;stroke-linecap:butt;stroke-linejoin:miter;stroke-opacity:1"
       d="m 108.82219,38.860722 35.06322,0.0089"
       id="path176053-0"
       sodipodi:nodetypes="cc" />
    <path
       style="fill:none;stroke:#000000;stroke-width:0.264583px;stroke-linecap:butt;stroke-linejoin:miter;stroke-opacity:1"
       d="m 124.65203,37.127817 c -0.0941,1.711015 -0.58038,3.865313 0.6513,0.993099 0.0963,-0.224602 0.32601,1.201714 0.4888,1.233808 0.007,0.0014 0.30866,-1.139476 0.35123,-1.206267 0.12789,-0.200628 -0.0938,0.822088 0.21618,0.9514 0.0992,0.04139 0.10177,-1.818378 0.36308,-1.065831 0.0761,0.219246 0.1682,0.436322 0.20448,0.665562 0.0735,0.464179 0.0846,0.936114 0.1232,1.40448 0.11821,1.433039 0.27371,2.871752 0.25496,4.310595 -0.002,0.11982 0.0423,-0.23711 0.0427,-0.35693 0.002,-0.565323 -0.0445,-1.13051 -0.0315,-1.695685 0.049,-2.118565 -0.0202,-4.709568 0.62499,-6.765118 0.0972,-0.309738 0.3106,0.586298 0.35113,0.908391 0.21776,1.730576 0.20209,3.531939 0.29055,5.274266 0.0294,0.578334 0.0678,1.156287 0.0875,1.735027 0.008,0.235495 -0.0413,0.940739 -0.0133,0.706779 0.20447,-1.707504 0.113,-3.45733 0.31931,-5.180282 0.0575,-0.480179 0.0826,-0.965354 0.1725,-1.440539 0.0482,-0.25473 0.10771,-0.881829 0.30611,-0.714966 0.46939,0.394757 0.54298,2.353652 0.75898,3.018941 0.0948,0.292034 -0.024,-0.613625 -0.0326,-0.920538 -0.007,-0.239229 -0.0516,-1.744145 6e-4,-1.79335 0.12766,-0.120366 0.19635,0.298392 0.24055,0.468191 0.31908,1.225782 0.25141,2.531679 0.34878,3.7855 0.006,0.0734 -0.025,-0.145162 -0.0379,-0.217665 -0.0518,-0.290401 -0.15398,-0.692419 -0.14718,-1.001795 0.0445,-2.02471 0.23368,0.561334 0.6639,-0.176337"
       id="path176156-4" />
    <path
       style="fill:none;stroke:#000000;stroke-width:0.264583px;stroke-linecap:butt;stroke-linejoin:miter;stroke-opacity:1"
       d="m 84.752609,38.662583 c 1.68684,0.592678 0.31643,0.137222 1.10219,-0.754856 0.11459,-0.130093 0.13927,0.325045 0.14961,0.498091 0.0372,0.623562 -0.0374,1.243319 -0.0556,1.852703 -0.009,0.308698 0.095,-0.610949 0.1185,-0.918891 0.0236,-0.310241 -0.0698,-1.45561 0.0214,-1.524947 0.0441,-0.03362 -0.0541,0.100809 -0.0579,0.156209 -0.0127,0.187077 0.0239,0.374383 0.0275,0.56186 0.0141,0.73428 -0.0735,1.735566 0.21902,2.437914 0.0484,0.116284 0.29765,-0.21564 0.31569,-1.270208 0.01,-0.586276 -0.0166,-2.91178 -0.29581,-3.349419 -0.29234,-0.458271 0.0847,1.083961 0.11383,1.626754 0.0898,1.673395 0.0485,3.293347 0.26064,4.953523 0.009,0.06661 0.003,-0.13439 0.008,-0.201382 0.0205,-0.291788 0.0218,-0.58463 0.0371,-0.876736 0.024,-0.457707 0.0762,-0.914316 0.0806,-1.37263 0.009,-0.983185 -0.002,-1.967061 -0.0447,-2.949366 -0.0197,-0.452539 -0.23669,-1.233961 -0.17444,-1.716842 0.0176,-0.136903 0.0837,0.263644 0.11108,0.398951 0.0757,0.374507 0.15498,0.748641 0.21312,1.126275 0.19187,1.246453 0.28847,2.513603 0.33768,3.77355 0.007,0.187116 -0.13537,0.467768 0.027,0.561059 0.0648,0.03726 0.0765,-0.559409 0.12232,-1.743012 0.0278,-0.717827 0.50843,-3.458112 0.0788,-4.131666 -0.16439,-0.257684 0.252,0.54714 0.43222,1.468385 0.17972,0.918752 0.26374,2.040373 0.21124,2.979713 -0.0138,0.246687 0.0909,-0.488389 0.0923,-0.735458 0.006,-1.028784 -0.13843,-1.986505 0.0298,-3.006471 0.0496,-0.300411 0.0895,0.602505 0.12134,0.905312 0.0826,0.785971 0.31878,3.001583 0.21373,3.0686 -0.20687,0.131969 -0.005,-0.490827 -0.0148,-0.736019 -0.0249,-0.623609 -0.0646,-1.275346 -0.0429,-1.900183 0.004,-0.115805 0.0645,0.222769 0.0886,0.336097 0.0951,0.449148 0.19431,0.85093 0.17282,1.303096 -9.6e-4,0.01709 0.0355,-0.795958 0.19744,-0.953257 0.0294,-0.02862 0.14128,0.950361 0.14202,0.954882 0.16472,1.004955 0.064,-0.274135 0.15005,-0.532904 0.031,-0.0931 0.10924,0.863018 0.14396,0.417252"
       id="path176285-0-4" />
    <path
       style="fill:none;stroke:#000000;stroke-width:0.264583px;stroke-linecap:butt;stroke-linejoin:miter;stroke-opacity:1"
       d="m 133.06222,26.071718 c -0.0941,1.711015 -0.58038,3.865313 0.6513,0.993099 0.0963,-0.224602 0.32601,1.201714 0.4888,1.233808 0.007,0.0014 0.30866,-1.139476 0.35123,-1.206267 0.12789,-0.200628 -0.0938,0.822088 0.21618,0.9514 0.0992,0.04139 0.10177,-1.818378 0.36308,-1.065831 0.0761,0.219246 0.1682,0.436322 0.20448,0.665562 0.0735,0.464179 0.0846,0.936114 0.1232,1.40448 0.11821,1.433039 0.27371,2.871752 0.25496,4.310598 -0.002,0.119815 0.0423,-0.237109 0.0427,-0.35693 0.002,-0.565326 -0.0445,-1.130513 -0.0315,-1.695688 0.049,-2.118565 -0.0202,-4.709568 0.62499,-6.765118 0.0972,-0.309738 0.3106,0.586298 0.35113,0.908391 0.21776,1.730576 0.20209,3.531939 0.29055,5.274266 0.0294,0.578334 0.0678,1.156287 0.0875,1.735027 0.008,0.235495 -0.0413,0.940736 -0.0133,0.706777 0.20447,-1.707502 0.113,-3.457328 0.31931,-5.18028 0.0575,-0.480179 0.0826,-0.965354 0.1725,-1.440539 0.0482,-0.25473 0.10771,-0.881829 0.30611,-0.714966 0.46939,0.394757 0.54298,2.353652 0.75898,3.018941 0.0948,0.292034 -0.024,-0.613625 -0.0326,-0.920538 -0.007,-0.239229 -0.0516,-1.744145 6e-4,-1.79335 0.12766,-0.120366 0.19635,0.298392 0.24055,0.468191 0.31908,1.225782 0.25141,2.531679 0.34878,3.7855 0.006,0.0734 -0.025,-0.145162 -0.0379,-0.217665 -0.0518,-0.290401 -0.15398,-0.692419 -0.14718,-1.001795 0.0445,-2.02471 0.23368,0.561334 0.6639,-0.176337"
       id="path176156-44" />
  </g>
</svg>
